<?xml version="1.0" encoding="UTF-8" standalone="no"?>
<svg
   xmlns:dc="http://purl.org/dc/elements/1.1/"
   xmlns:cc="http://creativecommons.org/ns#"
   xmlns:rdf="http://www.w3.org/1999/02/22-rdf-syntax-ns#"
   xmlns:svg="http://www.w3.org/2000/svg"
   xmlns="http://www.w3.org/2000/svg"
   xmlns:sodipodi="http://sodipodi.sourceforge.net/DTD/sodipodi-0.dtd"
   xmlns:inkscape="http://www.inkscape.org/namespaces/inkscape"
   fill="#000000"
   height="48"
   viewBox="0 0 24 24"
   width="48"
   id="svg3386"
   version="1.1"
   inkscape:version="0.91 r13725"
   sodipodi:docname="brightness_gear.svg">
  <metadata
     id="metadata3396">
    <rdf:RDF>
      <cc:Work
         rdf:about="">
        <dc:format>image/svg+xml</dc:format>
        <dc:type
           rdf:resource="http://purl.org/dc/dcmitype/StillImage" />
        <dc:title></dc:title>
      </cc:Work>
    </rdf:RDF>
  </metadata>
  <defs
     id="defs3394" />
  <sodipodi:namedview
     pagecolor="#ffffff"
     bordercolor="#666666"
     borderopacity="1"
     objecttolerance="10"
     gridtolerance="10"
     guidetolerance="10"
     inkscape:pageopacity="0"
     inkscape:pageshadow="2"
     inkscape:window-width="2560"
     inkscape:window-height="1407"
     id="namedview3392"
     showgrid="true"
     inkscape:zoom="11.549411"
     inkscape:cx="-6.5607064"
     inkscape:cy="37.650168"
     inkscape:window-x="0"
     inkscape:window-y="33"
     inkscape:window-maximized="1"
     inkscape:current-layer="svg3386"
     showguides="false">
    <inkscape:grid
       type="xygrid"
       id="grid3419" />
  </sodipodi:namedview>
  <path
     d="M0 0h24v24H0z"
     fill="none"
     id="path3388" />
  <path
     d="m 5.4545455,18.545455 c 1.3636363,0 2.7272732,0 4.0909092,0 C 10.363636,19.363637 11.181819,20.181819 12,21 c 0.818182,-0.818181 1.636364,-1.636363 2.454546,-2.454545 1.363636,0 2.727273,0 4.090909,0 0,-1.363636 0,-2.727272 0,-4.090909 C 19.363637,13.636364 20.181818,12.818182 21,12 20.181818,11.181819 19.363637,10.363636 18.545455,9.5454547 c 0,-1.3636365 0,-2.7272728 0,-4.0909093 -1.363636,0 -2.727273,0 -4.090909,0 C 13.636364,4.6363636 12.818182,3.8181818 12,3 11.181819,3.8181818 10.363636,4.6363636 9.5454547,5.4545454 c -1.363636,0 -2.7272729,0 -4.0909092,0 0,1.3636365 0,2.7272728 0,4.0909093 C 4.6363636,10.363636 3.8181818,11.181819 3,12 c 0.8181818,0.818182 1.6363636,1.636364 2.4545455,2.454546 0,1.363637 0,2.727273 0,4.090909 z M 12,7.0909091 c 2.39736,-0.054982 4.617962,1.8984085 4.869737,4.2828269 0.349691,2.334291 -1.240949,4.750499 -3.523992,5.349505 C 12.91708,16.754841 11.826327,17.27535 12,16.501798 c 0,-3.136963 0,-6.273926 0,-9.4108889 z"
     id="path3390"
     inkscape:connector-curvature="0" />
</svg>
