<?xml version="1.0" encoding="UTF-8" standalone="no"?>
<svg
   xmlns:dc="http://purl.org/dc/elements/1.1/"
   xmlns:cc="http://creativecommons.org/ns#"
   xmlns:rdf="http://www.w3.org/1999/02/22-rdf-syntax-ns#"
   xmlns:svg="http://www.w3.org/2000/svg"
   xmlns="http://www.w3.org/2000/svg"
   xmlns:sodipodi="http://sodipodi.sourceforge.net/DTD/sodipodi-0.dtd"
   xmlns:inkscape="http://www.inkscape.org/namespaces/inkscape"
   fill="#000000"
   height="48"
   viewBox="0 0 24 24"
   width="48"
   id="svg3386"
   version="1.1"
   inkscape:version="0.91 r13725"
   sodipodi:docname="brightness_gear_a2.svg"
   inkscape:export-filename="/home/andy/code/android/projects/Auto-Brightness-Switch/icon/path3390.png"
   inkscape:export-xdpi="960"
   inkscape:export-ydpi="960">
  <metadata
     id="metadata3396">
    <rdf:RDF>
      <cc:Work
         rdf:about="">
        <dc:format>image/svg+xml</dc:format>
        <dc:type
           rdf:resource="http://purl.org/dc/dcmitype/StillImage" />
        <dc:title></dc:title>
      </cc:Work>
    </rdf:RDF>
  </metadata>
  <defs
     id="defs3394" />
  <sodipodi:namedview
     pagecolor="#ffffff"
     bordercolor="#666666"
     borderopacity="1"
     objecttolerance="10"
     gridtolerance="10"
     guidetolerance="10"
     inkscape:pageopacity="0"
     inkscape:pageshadow="2"
     inkscape:window-width="2560"
     inkscape:window-height="1407"
     id="namedview3392"
     showgrid="true"
     inkscape:zoom="16"
     inkscape:cx="11.073462"
     inkscape:cy="30.35552"
     inkscape:window-x="0"
     inkscape:window-y="33"
     inkscape:window-maximized="1"
     inkscape:current-layer="svg3386"
     showguides="false">
    <inkscape:grid
       type="xygrid"
       id="grid4437" />
  </sodipodi:namedview>
  <path
     d="M0 0h24v24H0z"
     fill="none"
     id="path3388" />
  <path
     d="M 24 6 L 19.091797 10.908203 L 10.908203 10.908203 L 10.908203 19.091797 L 6 24 L 10.908203 28.908203 L 10.908203 37.091797 L 19.091797 37.091797 L 24 42 L 28.908203 37.091797 L 37.091797 37.091797 L 37.091797 28.908203 L 42 24 L 37.091797 19.091797 L 37.091797 10.908203 L 28.908203 10.908203 L 24 6 z M 24 14.181641 C 29.432728 14.181641 33.818359 18.567273 33.818359 24 C 33.818359 29.432728 29.432728 33.818359 24 33.818359 L 24 27.724609 L 21.640625 27.724609 L 20.724609 31 L 18 31 L 22.628906 16 L 24 16 L 24 14.181641 z M 23.986328 19.328125 L 22.287109 25.40625 L 24 25.40625 L 24 19.328125 L 23.986328 19.328125 z "
     transform="scale(0.5,0.5)"
     id="path3390" />
  <path
     inkscape:connector-curvature="0"
     id="path4447"
     d="m 12,8 0,1.6640625 0.0068,0 0.84961,3.0390625 -0.856446,0 0,1.15918 1.179688,0 L 13.637696,15.5 15,15.5 12.695313,8 12,8 Z"
     style="font-style:normal;font-variant:normal;font-weight:bold;font-stretch:normal;font-size:9.98966599px;line-height:125%;font-family:Roboto;-inkscape-font-specification:'Roboto Bold';letter-spacing:0px;word-spacing:0px;fill:#000000;fill-opacity:1;stroke:none;stroke-width:1px;stroke-linecap:butt;stroke-linejoin:miter;stroke-opacity:1" />
</svg>
